<?xml version="1.0" encoding="utf-8"?>
<!-- Generator: Adobe Illustrator 28.2.0, SVG Export Plug-In . SVG Version: 6.00 Build 0)  -->
<svg version="1.1" id="Ebene_1" xmlns="http://www.w3.org/2000/svg" xmlns:xlink="http://www.w3.org/1999/xlink" x="0px" y="0px"
	 viewBox="0 0 780 780" style="enable-background:new 0 0 780 780;" xml:space="preserve">
<style type="text/css">
	.st0{fill:#F2F2F2;}
</style>
<g>
	<g>
		<path class="st0" d="M637.12,219.89c27.55-7.58,46.9-32.26,46.9-60.84v-0.16c0-34.74-28.16-62.91-62.91-62.91h-0.16
			c-28.58,0-53.26,19.34-60.84,46.9C539.57,217.55,471.19,272.4,390,272.4s-149.57-54.85-170.11-129.51
			c-7.58-27.55-32.26-46.9-60.84-46.9h-0.16c-34.74,0-62.91,28.16-62.91,62.91v0.16c0,28.58,19.34,53.26,46.9,60.84
			C217.55,240.43,272.4,308.81,272.4,390s-54.85,149.57-129.51,170.11c-27.55,7.58-46.9,32.26-46.9,60.84v0.16
			c0,34.74,28.16,62.91,62.91,62.91h0.16c28.58,0,53.26-19.34,60.84-46.9c20.54-74.66,88.92-129.51,170.11-129.51
			s149.57,54.85,170.11,129.51c7.58,27.55,32.26,46.9,60.84,46.9h0.16c34.74,0,62.91-28.16,62.91-62.91v-0.16
			c0-28.58-19.34-53.26-46.9-60.84C562.45,539.57,507.61,471.19,507.61,390S562.45,240.43,637.12,219.89z"/>
		<g>
			<path class="st0" d="M82.29,37.23L82.29,37.23c4.14,4.14,10.44,5.15,15.71,2.6c46.61-22.53,104.38-14.55,143.07,23.96
				c5.28,5.25,13.96,5.59,19.34,0.44c5.57-5.32,5.65-14.16,0.23-19.58c-47.2-47.2-117.87-56.98-174.8-29.35
				C77.43,19.39,75.68,30.63,82.29,37.23z"/>
			<path class="st0" d="M15.35,85.74c-27.6,56.76-17.99,127.2,28.83,174.42c4.92,4.97,12.84,5.96,18.4,1.72
				c6.74-5.15,7.21-14.82,1.43-20.6C25.3,202.56,17.25,144.62,39.87,97.91c2.56-5.28,1.57-11.6-2.58-15.75l0,0
				C30.68,75.55,19.45,77.33,15.35,85.74z"/>
		</g>
		<g>
			<path class="st0" d="M682.01,740.17c-46.62,22.53-104.41,14.54-143.1-23.99c-5.26-5.24-13.9-5.55-19.29-0.44
				c-5.6,5.32-5.69,14.18-0.26,19.61c47.2,47.2,117.87,56.98,174.8,29.35c8.41-4.08,10.16-15.32,3.55-21.93l0,0
				C693.57,738.63,687.28,737.62,682.01,740.17z"/>
			<path class="st0" d="M715.74,519.62c-5.11,5.38-4.8,14.02,0.44,19.28c38.56,38.72,46.54,96.57,23.94,143.21
				c-2.56,5.27-1.55,11.58,2.59,15.72l0,0c6.6,6.6,17.83,4.85,21.92-3.54c27.72-56.95,17.96-127.69-29.28-174.93
				C729.92,513.93,721.06,514.02,715.74,519.62z"/>
		</g>
		<g>
			<path class="st0" d="M740.14,97.94c22.57,46.63,14.58,104.45-23.96,143.15c-5.24,5.26-5.55,13.9-0.44,19.29
				c5.32,5.6,14.18,5.69,19.61,0.26c47.22-47.22,56.99-117.92,29.31-174.86c-4.08-8.4-15.32-10.15-21.92-3.55v0
				C738.59,86.37,737.59,92.67,740.14,97.94z"/>
			<path class="st0" d="M538.91,63.82c38.71-38.55,96.53-46.53,143.16-23.96c5.27,2.55,11.57,1.55,15.72-2.6l0,0
				c6.6-6.6,4.85-17.84-3.55-21.92C637.29-12.33,566.58-2.57,519.36,44.65c-5.43,5.43-5.34,14.29,0.26,19.61
				C525.01,69.38,533.65,69.06,538.91,63.82z"/>
		</g>
		<g>
			<path class="st0" d="M241.09,716.18c-38.71,38.55-96.52,46.53-143.15,23.96c-5.27-2.55-11.57-1.55-15.72,2.6h0
				c-6.6,6.6-4.85,17.84,3.55,21.92c56.94,27.67,127.64,17.91,174.86-29.31c5.43-5.43,5.34-14.29-0.26-19.61
				C254.99,710.62,246.35,710.94,241.09,716.18z"/>
			<path class="st0" d="M39.86,682.06c-22.57-46.63-14.58-104.45,23.96-143.15c5.24-5.26,5.55-13.9,0.44-19.29
				c-5.32-5.6-14.18-5.69-19.61-0.26c-47.22,47.22-56.99,117.92-29.31,174.86c4.08,8.4,15.32,10.15,21.92,3.55h0
				C41.41,693.63,42.41,687.33,39.86,682.06z"/>
		</g>
	</g>
</g>
</svg>
