<?xml version="1.0" encoding="utf-8"?>
<!-- Generator: Adobe Illustrator 28.2.0, SVG Export Plug-In . SVG Version: 6.00 Build 0)  -->
<svg version="1.1" id="Ebene_1" xmlns="http://www.w3.org/2000/svg" xmlns:xlink="http://www.w3.org/1999/xlink" x="0px" y="0px"
	 viewBox="0 0 1170 267.5" style="enable-background:new 0 0 1170 267.5;" xml:space="preserve">
<style type="text/css">
	.st0{fill:#FFFFFF;}
</style>
<g>
	<g>
		<path class="st0" d="M131.7,98.7c5.7-1.6,9.7-6.7,9.7-12.5v0c0-7.2-5.8-13-13-13h0c-5.9,0-11,4-12.5,9.7
			c-4.2,15.4-18.3,26.7-35.1,26.7S50,98.2,45.7,82.8c-1.6-5.7-6.7-9.7-12.5-9.7h0c-7.2,0-13,5.8-13,13v0c0,5.9,4,11,9.7,12.5
			c15.4,4.2,26.7,18.3,26.7,35.1c0,16.7-11.3,30.8-26.7,35.1c-5.7,1.6-9.7,6.7-9.7,12.5v0c0,7.2,5.8,13,13,13h0c5.9,0,11-4,12.5-9.7
			c4.2-15.4,18.3-26.7,35.1-26.7s30.8,11.3,35.1,26.7c1.6,5.7,6.7,9.7,12.5,9.7h0c7.2,0,13-5.8,13-13v0c0-5.9-4-11-9.7-12.5
			c-15.4-4.2-26.7-18.3-26.7-35.1C105,117,116.3,102.9,131.7,98.7z"/>
		<g>
			<path class="st0" d="M17.3,61L17.3,61c0.9,0.9,2.1,1.1,3.2,0.5c9.6-4.7,21.5-3,29.5,4.9c1.1,1.1,2.9,1.1,4,0.1
				c1.1-1.1,1.2-2.9,0.1-4c-9.7-9.7-24.3-11.8-36-6C16.3,57.3,16,59.7,17.3,61z"/>
			<path class="st0" d="M3.5,71C-2.1,82.7-0.2,97.2,9.5,107c1,1,2.6,1.2,3.8,0.4c1.4-1.1,1.5-3.1,0.3-4.3c-8-8-9.6-19.9-5-29.6
				c0.5-1.1,0.3-2.4-0.5-3.2l0,0C6.7,68.9,4.4,69.3,3.5,71z"/>
		</g>
		<g>
			<path class="st0" d="M140.9,205.9c-9.6,4.7-21.5,3-29.5-4.9c-1.1-1.1-2.9-1.1-4-0.1c-1.1,1.1-1.2,2.9-0.1,4
				c9.7,9.7,24.3,11.8,36,6c1.7-0.8,2.1-3.1,0.7-4.5l0,0C143.3,205.6,142,205.4,140.9,205.9z"/>
			<path class="st0" d="M147.9,160.4c-1.1,1.1-1,2.9,0.1,4c7.9,8,9.6,19.9,4.9,29.5c-0.5,1.1-0.3,2.4,0.5,3.2l0,0
				c1.4,1.4,3.7,1,4.5-0.7c5.7-11.7,3.7-26.3-6-36.1C150.8,159.3,149,159.3,147.9,160.4z"/>
		</g>
		<g>
			<path class="st0" d="M152.9,73.5c4.7,9.6,3,21.5-4.9,29.5c-1.1,1.1-1.1,2.9-0.1,4c1.1,1.1,2.9,1.2,4,0.1
				c9.7-9.7,11.8-24.3,6-36.1c-0.8-1.7-3.1-2.1-4.5-0.7l0,0C152.6,71.1,152.4,72.4,152.9,73.5z"/>
			<path class="st0" d="M111.4,66.5c8-7.9,19.9-9.6,29.5-4.9c1.1,0.5,2.4,0.3,3.2-0.5l0,0c1.4-1.4,1-3.7-0.7-4.5
				c-11.7-5.7-26.3-3.7-36.1,6c-1.1,1.1-1.1,3,0.1,4C108.6,67.7,110.4,67.6,111.4,66.5z"/>
		</g>
		<g>
			<path class="st0" d="M50.1,200.9c-8,7.9-19.9,9.6-29.5,4.9c-1.1-0.5-2.4-0.3-3.2,0.5l0,0c-1.4,1.4-1,3.7,0.7,4.5
				c11.7,5.7,26.3,3.7,36-6c1.1-1.1,1.1-3-0.1-4C52.9,199.8,51.2,199.9,50.1,200.9z"/>
			<path class="st0" d="M8.6,193.9c-4.7-9.6-3-21.5,4.9-29.5c1.1-1.1,1.1-2.9,0.1-4c-1.1-1.1-2.9-1.2-4-0.1
				c-9.7,9.7-11.8,24.3-6,36.1c0.8,1.7,3.1,2.1,4.5,0.7l0,0C8.9,196.3,9.1,195,8.6,193.9z"/>
		</g>
	</g>
</g>
<g>
	<path class="st0" d="M241.8,156.2l4-5.8c2.6-3.7,5.5-4,9.8-1.7c3,1.5,8.7,5.7,16.7,5.7c6.7,0,9.8-2.8,9.8-6.4
		c0-13-40.6-10.9-40.6-39.7c0-17,14.2-28.2,32.8-28.2c10.7,0,20.5,3.7,24.8,6.8c3.7,2.7,4.1,5.9,2.2,9.6l-3.1,6
		c-2.6,5-6,4.2-9.6,2.5c-4.2-2.1-8.5-4.2-14.5-4.2c-7.1,0-10,2.8-10,6.4c0,13.4,40.6,10.1,40.6,39.2c0,15.4-11.6,28.7-32.3,28.7
		c-12.8,0-24.3-5.3-29.2-9.1C240.4,163.8,238.5,161,241.8,156.2z"/>
	<path class="st0" d="M382,88.7c0-4.6,2.5-7.1,7.1-7.1h8.4c4.6,0,7.1,2.5,7.1,7.1v28.4h9.3l16.3-30.5c1.9-3.5,4.5-5,8.4-5h8.7
		c5.7,0,7.7,3.6,5,8.5l-20.1,35.5v0.3l21.6,39.2c2.7,4.9,0.6,8.5-5,8.5h-9.9c-3.8,0-6.4-1.5-8.4-5l-16.7-32.3h-9.3v30.2
		c0,4.6-2.5,7.1-7.1,7.1h-8.4c-4.6,0-7.1-2.5-7.1-7.1L382,88.7L382,88.7z"/>
	<path class="st0" d="M550.2,135.9l-25.6-45.8c-2.8-4.9-0.6-8.5,4.9-8.5h10.1c4,0,6.5,1.7,8.2,5.3l8,16.9c3,6.3,5.5,13.2,5.5,13.2
		h0.3c0,0,2.6-6.9,5.5-13.2l7.8-16.9c1.7-3.6,4.2-5.3,8.2-5.3h10.2c5.5,0,7.7,3.6,4.9,8.5l-25.6,45.8v30.6c0,4.6-2.5,7.1-7.1,7.1
		h-8.4c-4.6,0-7.1-2.5-7.1-7.1L550.2,135.9L550.2,135.9z"/>
	<path class="st0" d="M673.3,88.7c0-4.6,2.5-7.1,7.1-7.1h8.4c4.6,0,7.1,2.5,7.1,7.1v65.6h30.5c4.6,0,7.1,2.5,7.1,7.1v5.1
		c0,4.6-2.5,7.1-7.1,7.1h-45.9c-4.6,0-7.1-2.5-7.1-7.1V88.7z"/>
	<path class="st0" d="M816.5,135.9l-25.6-45.8c-2.8-4.9-0.6-8.5,4.9-8.5h10.1c4,0,6.5,1.7,8.2,5.3l8,16.9c3,6.3,5.5,13.2,5.5,13.2
		h0.3c0,0,2.6-6.9,5.5-13.2l7.8-16.9c1.7-3.6,4.2-5.3,8.2-5.3h10.1c5.5,0,7.7,3.6,4.9,8.5l-25.6,45.8v30.6c0,4.6-2.5,7.1-7.1,7.1
		h-8.4c-4.6,0-7.1-2.5-7.1-7.1L816.5,135.9L816.5,135.9z"/>
	<path class="st0" d="M939.6,88.7c0-4.6,2.5-7.1,7.1-7.1h10c4,0,6.5,1.4,8.5,4.8l22.6,38.2c3.6,6,7.7,15.7,7.7,15.7h0.3
		c0,0-1-9.9-1-15.7V88.7c0-4.6,2.5-7.1,7.1-7.1h8.4c4.6,0,7.1,2.5,7.1,7.1v77.8c0,4.6-2.5,7.1-7.1,7.1h-10c-3.8,0-6.4-1.4-8.4-4.8
		L969,130.8c-3.6-6-7.7-15.7-7.7-15.7h-0.3c0,0,1,9.9,1,15.7v35.8c0,4.6-2.5,7.1-7.1,7.1h-8.4c-4.6,0-7.1-2.5-7.1-7.1V88.7
		L939.6,88.7z"/>
	<path class="st0" d="M1118.2,127.9l-22.9-37.8c-3-4.9-0.9-8.5,4.8-8.5h10c3.8,0,6.4,1.5,8.4,5l7.3,13.9c3.1,5.8,5.7,11.8,5.7,11.8
		h0.3c0,0,2.5-5.9,5.7-11.8l7.5-13.9c1.9-3.5,4.5-5,8.4-5h10c5.7,0,7.7,3.6,4.8,8.5l-23,37.8l22.8,37.1c3.1,4.9,1,8.5-4.8,8.5h-9.4
		c-3.8,0-6.4-1.5-8.4-5l-7.8-14.3c-3.2-5.8-5.7-11.5-5.7-11.5h-0.3c0,0-2.5,5.7-5.7,11.5l-7.8,14.3c-1.9,3.5-4.5,5-8.4,5h-9.3
		c-5.8,0-7.8-3.6-4.9-8.5L1118.2,127.9z"/>
</g>
</svg>
