<?xml version="1.0" encoding="utf-8"?>
<!-- Generator: Adobe Illustrator 28.2.0, SVG Export Plug-In . SVG Version: 6.00 Build 0)  -->
<svg version="1.1" id="katman_1" xmlns="http://www.w3.org/2000/svg" xmlns:xlink="http://www.w3.org/1999/xlink" x="0px" y="0px"
	 viewBox="0 0 200 70" style="enable-background:new 0 0 200 70;" xml:space="preserve">
<style type="text/css">
	.st0{fill:#1EA8E7;}
	.st1{fill:#4E4E4E;}
</style>
<g>
	<g>
		<g>
			<path class="st0" d="M22.4,29c1-0.2,1.6-1.2,1.6-2.2l0,0c0-1.2-1-2.2-2.2-2.2l0,0c-1,0-1.8,0.6-2.2,1.6c-0.8,2.6-3.2,4.6-6,4.6
				s-5.2-2-6-4.6c-0.2-1-1.2-1.6-2.2-1.6l0,0c-1.2,0-2.2,1-2.2,2.2l0,0c0,1,0.6,1.8,1.6,2.2c2.6,0.8,4.6,3.2,4.6,6s-2,5.2-4.6,6
				c-1,0.2-1.6,1.2-1.6,2.2l0,0c0,1.2,1,2.2,2.2,2.2l0,0c1,0,1.8-0.6,2.2-1.6c0.8-2.6,3.2-4.6,6-4.6s5.2,2,6,4.6
				c0.2,1,1.2,1.6,2.2,1.6l0,0c1.2,0,2.2-1,2.2-2.2l0,0c0-1-0.6-1.8-1.6-2.2c-2.6-0.8-4.6-3.2-4.6-6S19.8,29.8,22.4,29z"/>
			<g>
				<path class="st0" d="M2.7,22.6L2.7,22.6c0.2,0.2,0.4,0.2,0.6,0c1.6-0.8,3.6-0.6,5,0.8c0.2,0.2,0.4,0.2,0.6,0
					c0.2-0.2,0.2-0.4,0-0.6c-1.6-1.6-4.2-2-6.2-1C2.7,22,2.5,22.4,2.7,22.6z"/>
				<path class="st0" d="M0.5,24.2c-1,2-0.6,4.4,1,6.2c0.2,0.2,0.4,0.2,0.6,0s0.2-0.6,0-0.8c-1.4-1.4-1.6-3.4-0.8-5
					c0-0.2,0-0.4,0-0.6l0,0C0.9,24,0.5,24,0.5,24.2z"/>
			</g>
			<g>
				<path class="st0" d="M24,47.4c-1.6,0.8-3.6,0.6-5-0.8c-0.2-0.2-0.4-0.2-0.6,0c-0.2,0.2-0.2,0.4,0,0.6c1.6,1.6,4.2,2,6.2,1
					c0.2-0.2,0.4-0.6,0.2-0.8l0,0C24.4,47.2,24.2,47.2,24,47.4z"/>
				<path class="st0" d="M25.2,39.6c-0.2,0.2-0.2,0.4,0,0.6c1.4,1.4,1.6,3.4,0.8,5c0,0.2,0,0.4,0,0.6l0,0c0.2,0.2,0.6,0.2,0.8-0.2
					c1-2,0.6-4.4-1-6.2C25.8,39.4,25.4,39.4,25.2,39.6z"/>
			</g>
			<g>
				<path class="st0" d="M26,24.8c0.8,1.6,0.6,3.6-0.8,5c-0.2,0.2-0.2,0.4,0,0.6c0.2,0.2,0.4,0.2,0.6,0c1.6-1.6,2-4.2,1-6.2
					C26.6,24,26.2,23.8,26,24l0,0C26,24.2,26,24.6,26,24.8z"/>
				<path class="st0" d="M19,23.6c1.4-1.4,3.4-1.6,5-0.8c0.2,0,0.4,0,0.6,0l0,0c0.2-0.2,0.2-0.6-0.2-0.8c-2-1-4.4-0.6-6.2,1
					c-0.2,0.2-0.2,0.6,0,0.6C18.6,23.8,18.8,23.6,19,23.6z"/>
			</g>
			<g>
				<path class="st0" d="M8.6,46.4c-1.4,1.4-3.4,1.6-5,0.8c-0.2,0-0.4,0-0.6,0l0,0c-0.2,0.2-0.2,0.6,0.2,0.8c2,1,4.4,0.6,6.2-1
					c0.2-0.2,0.2-0.6,0-0.6C9,46.4,8.6,46.4,8.6,46.4z"/>
				<path class="st0" d="M1.3,45.2c-0.8-1.6-0.6-3.6,0.8-5c0.2-0.2,0.2-0.4,0-0.6c-0.2-0.2-0.4-0.2-0.6,0c-1.6,1.6-2,4.2-1,6.2
					c0,0.2,0.4,0.2,0.8,0l0,0C1.3,45.8,1.3,45.4,1.3,45.2z"/>
			</g>
		</g>
	</g>
	<g>
		<path class="st1" d="M41.2,38.8l0.6-1c0.4-0.6,1-0.6,1.6-0.2c0.6,0.2,1.4,1,2.8,1c1.2,0,1.6-0.4,1.6-1c0-2.2-7-1.8-7-6.8
			c0-3,2.4-4.8,5.6-4.8c1.8,0,3.6,0.6,4.2,1.2c0.6,0.4,0.8,1,0.4,1.6l-0.6,1c-0.4,0.8-1,0.8-1.6,0.4c-0.8-0.4-1.4-0.8-2.4-0.8
			c-1.2,0-1.8,0.4-1.8,1c0,2.2,7,1.8,7,6.8c0,2.6-2,5-5.6,5c-2.2,0-4.2-1-5-1.6C41,40.2,40.8,39.6,41.2,38.8z"/>
		<path class="st1" d="M65.2,27.4c0-0.8,0.4-1.2,1.2-1.2H68c0.8,0,1.2,0.4,1.2,1.2v4.8h1.6l2.8-5.2c0.4-0.6,0.8-0.8,1.4-0.8h1.4
			c1,0,1.4,0.6,0.8,1.4l-3.4,6l0,0l3.6,6.8c0.4,0.8,0.2,1.4-0.8,1.4H75c-0.6,0-1-0.2-1.4-0.8l-2.8-5.6h-1.6v5.2
			c0,0.8-0.4,1.2-1.2,1.2h-1.4c-0.8,0-1.2-0.4-1.2-1.2L65.2,27.4L65.2,27.4z"/>
		<path class="st1" d="M94,35.4l-4.4-7.8c-0.4-0.8-0.2-1.4,0.8-1.4h1.8c0.6,0,1.2,0.2,1.4,1L95,30c0.6,1,1,2.2,1,2.2l0,0
			c0,0,0.4-1.2,1-2.2l1.4-2.8c0.2-0.6,0.8-1,1.4-1h1.8c1,0,1.4,0.6,0.8,1.4L98,35.4v5.2c0,0.8-0.4,1.2-1.2,1.2h-1.4
			c-0.8,0-1.2-0.4-1.2-1.2L94,35.4L94,35.4z"/>
		<path class="st1" d="M115.2,27.4c0-0.8,0.4-1.2,1.2-1.2h1.4c0.8,0,1.2,0.4,1.2,1.2v11.2h5.2c0.8,0,1.2,0.4,1.2,1.2v0.8
			c0,0.8-0.4,1.2-1.2,1.2h-7.8c-0.8,0-1.2-0.4-1.2-1.2L115.2,27.4L115.2,27.4z"/>
		<path class="st1" d="M139.6,35.4l-4.4-7.8c-0.4-0.8,0-1.6,0.8-1.6h1.8c0.6,0,1.2,0.2,1.4,1l1.4,2.8c0.6,1,1,2.2,1,2.2l0,0
			c0,0,0.4-1.2,1-2.2L144,27c0.2-0.6,0.8-1,1.4-1h1.8c1,0,1.4,0.6,0.8,1.4l-4.4,7.8v5.2c0,0.8-0.4,1.2-1.2,1.2H141
			c-0.8,0-1.2-0.4-1.2-1.2L139.6,35.4L139.6,35.4z"/>
		<path class="st1" d="M160.7,27.4c0-0.8,0.4-1.2,1.2-1.2h1.8c0.6,0,1.2,0.2,1.4,0.8l3.8,6.6c0.6,1,1.4,2.6,1.4,2.6l0,0
			c0,0-0.2-1.6-0.2-2.6v-6.2c0-0.8,0.4-1.2,1.2-1.2h1.4c0.8,0,1.2,0.4,1.2,1.2v13.4c0,0.8-0.4,1.2-1.2,1.2h-1.8
			c-0.6,0-1-0.2-1.4-0.8l-4-6.6c-0.6-1-1.4-2.6-1.4-2.6l0,0c0,0,0.2,1.6,0.2,2.6v6.2c0,0.8-0.4,1.2-1.2,1.2h-1.4
			c-0.8,0-1.2-0.4-1.2-1.2L160.7,27.4L160.7,27.4z"/>
		<path class="st1" d="M191.3,34l-4-6.4c-0.6-0.8-0.2-1.4,0.8-1.4h1.8c0.6,0,1,0.2,1.4,0.8l1.2,2.4c0.6,1,1,2,1,2l0,0c0,0,0.4-1,1-2
			l1.2-2.4c0.4-0.6,0.8-0.8,1.4-0.8h1.8c1,0,1.4,0.6,0.8,1.4l-4,6.4l4,6.4c0.6,0.8,0.2,1.4-0.8,1.4h-1.6c-0.6,0-1-0.2-1.4-0.8
			l-1.4-2.4c-0.6-1-1-2-1-2l0,0c0,0-0.4,1-1,2l-1.4,2.4c-0.4,0.6-0.8,0.8-1.4,0.8h-1.6c-1,0-1.4-0.6-0.8-1.4L191.3,34z"/>
	</g>
</g>
</svg>
